<?xml version="1.0" encoding="utf-8"?>
<!-- Generator: Adobe Illustrator 24.2.0, SVG Export Plug-In . SVG Version: 6.00 Build 0)  -->
<svg version="1.1" id="Vrstva_1" xmlns="http://www.w3.org/2000/svg" xmlns:xlink="http://www.w3.org/1999/xlink" x="0px" y="0px"
	 viewBox="0 0 85 85" style="enable-background:new 0 0 85 85;" xml:space="preserve">
<style type="text/css">
	.st0{fill:#020203;}
</style>
<g>
	<path d="M39.8,50.23H5.28v-7.47l15.9-16.72c3.92-4.46,5.88-8.01,5.88-10.63c0-2.13-0.46-3.75-1.39-4.86s-2.28-1.66-4.04-1.66
		c-1.74,0-3.16,0.74-4.25,2.23c-1.09,1.48-1.63,3.34-1.63,5.56H4.26c0-3.04,0.76-5.84,2.28-8.41s3.62-4.58,6.32-6.03
		s5.71-2.17,9.04-2.17c5.35,0,9.46,1.23,12.35,3.7s4.33,6.01,4.33,10.63c0,1.95-0.36,3.85-1.09,5.69c-0.72,1.85-1.85,3.78-3.38,5.81
		c-1.53,2.03-3.99,4.74-7.39,8.14l-6.39,7.37H39.8V50.23z"/>
	<path d="M46.25,26.07l3.02-25.31h28.91v8.83h-19.6l-1.12,9.89c0.82-0.48,1.89-0.9,3.21-1.26c1.33-0.36,2.62-0.55,3.89-0.55
		c4.92,0,8.69,1.46,11.33,4.37s3.96,6.99,3.96,12.25c0,3.17-0.71,6.04-2.12,8.61s-3.4,4.55-5.96,5.93
		c-2.56,1.38-5.58,2.07-9.07,2.07c-3.1,0-6.01-0.64-8.73-1.92c-2.72-1.28-4.85-3.03-6.39-5.26c-1.54-2.23-2.3-4.75-2.28-7.55h11.48
		c0.11,1.81,0.69,3.24,1.73,4.31c1.04,1.06,2.41,1.59,4.11,1.59c3.85,0,5.78-2.85,5.78-8.54c0-5.27-2.36-7.9-7.07-7.9
		c-2.67,0-4.67,0.86-5.98,2.58L46.25,26.07z"/>
	<path d="M23.03,80.95h9.23v4.08H17.73V63.04h5.3V80.95z"/>
	<path d="M48.13,75.69h-8.34v5.26h9.85v4.08H34.49V63.04h15.18v4.09h-9.88v4.64h8.34V75.69z"/>
	<path d="M69.36,67.13h-6.6v17.89h-5.3V67.13h-6.48v-4.09h18.38V67.13z"/>
</g>
</svg>
