<?xml version="1.0" encoding="utf-8"?>
<!-- Generator: Adobe Illustrator 24.2.0, SVG Export Plug-In . SVG Version: 6.00 Build 0)  -->
<svg version="1.1" id="Vrstva_1" xmlns="http://www.w3.org/2000/svg" xmlns:xlink="http://www.w3.org/1999/xlink" x="0px" y="0px"
	 viewBox="0 0 600 600" style="enable-background:new 0 0 600 600;" xml:space="preserve">
<style type="text/css">
	.st0{fill-rule:evenodd;clip-rule:evenodd;fill:#DA271C;}
	.st1{fill:#201B18;}
</style>
<polyline class="st0" points="9.27,384.25 593.39,384.25 593.39,425.5 9.27,425.5 "/>
<polyline class="st0" points="9.13,245.77 298.54,175.11 593.39,244.84 593.39,262.5 298.72,191.84 9.21,262.5 "/>
<path class="st1" d="M574.05,291.91c-14.18-7.01-34.33-10.52-60.39-10.52c-2.77,0-5.47,0.06-8.11,0.15H390.43v0.7h-1.82
	c-1.31,2.36-2.58,4.53-3.79,6.47c-1.21,1.97-2.38,3.75-3.48,5.34l-30.71,43.28l-21.37-45.98c-0.8-1.84-1.44-3.5-1.98-4.98
	c-0.54-1.47-0.9-2.87-1.17-4.14h-0.78v-0.7h-254v0.21c-0.87-0.01-1.75-0.02-2.61-0.02c-17.01,0-30.85,2.15-41.5,6.44
	c-10.68,4.29-16.01,9.8-16.01,16.53c0,3.77,1.77,7.25,5.29,10.51c3.55,3.24,9.81,7.01,18.86,11.32c2.08,1.03,4.89,2.33,8.44,3.93
	c8.81,4.11,13.23,7.01,13.23,8.71c0,1.2-1.01,2.09-3.05,2.67c-2.01,0.59-5.02,0.89-9.01,0.89c-3.88,0-8.74-0.43-14.57-1.28
	c-5.86-0.85-12.66-2.13-20.36-3.83l3.25,24.94c7.5,0.97,14.7,1.74,21.64,2.25c6.9,0.51,13.46,0.77,19.76,0.77
	c21.13,0,37.04-2.11,47.79-6.34c10.72-4.23,16.08-10.51,16.08-18.82c0-4.03-1.64-7.6-4.96-10.7c-3.31-3.08-9.53-7.58-19.41-11.73
	c-1.3-0.55-3.08-1.6-5.59-2.31c-11.08-3.14-17.03-8.88-11.13-13.01c1.48-1.03,3.19-1.08,6.25-1.83h31.61
	c0.22,0.02,0.41,0.05,0.55,0.07l-0.02-0.07h48.27l-54.8,62.74h56.2c1.11-2.17,2.11-4.05,2.99-5.67c0.91-1.62,1.68-2.85,2.32-3.69
	l6.58-8.83h47.83l5.61,11.04c0.6,1.33,1.07,2.56,1.48,3.69c0.4,1.15,0.74,2.29,0.97,3.46h53.54l-36.53-62.74h34.71l28.61,54.53
	c0.2,0.43,0.7,1.58,1.57,3.42c0.84,1.82,1.61,3.44,2.24,4.79h57.61c1.17-1.84,2.34-3.54,3.48-5.14c1.14-1.58,2.34-3.13,3.58-4.71
	l42.95-52.89h17.92c-7.1,6.64-10.66,14.65-10.66,24.07c0,12.71,7.01,22.6,21.05,29.72c14.05,7.11,33.67,10.66,58.9,10.66
	c25.86,0,46.18-3.89,60.96-11.7c14.74-7.81,22.11-18.47,22.11-32.01C595.36,308.82,588.26,298.91,574.05,291.91z M218.16,324.18
	h-28.82l17.18-23.31h1.77L218.16,324.18z M534.67,337.46c-5.01,3.57-11.95,5.35-20.82,5.35c-9.26,0-16.37-1.56-21.28-4.7
	c-4.95-3.12-7.4-7.6-7.4-13.42c0.2-6.73,2.76-11.9,7.67-15.49c4.95-3.59,11.95-5.37,21.02-5.37c9.13,0,16.14,1.6,20.98,4.8
	c4.88,3.22,7.31,7.82,7.31,13.85C542.14,328.91,539.65,333.89,534.67,337.46z"/>
</svg>
