<?xml version="1.0" encoding="utf-8"?>
<!-- Generator: Adobe Illustrator 24.2.0, SVG Export Plug-In . SVG Version: 6.00 Build 0)  -->
<svg version="1.1" id="Vrstva_1" xmlns="http://www.w3.org/2000/svg" xmlns:xlink="http://www.w3.org/1999/xlink" x="0px" y="0px"
	 viewBox="0 0 85 85" style="enable-background:new 0 0 85 85;" xml:space="preserve">
<style type="text/css">
	.st0{fill:#020203;}
</style>
<g>
	<path class="st0" d="M75.84,30.14l-6.44-6.66l1.3-9.17c0.2-1.4-0.75-2.71-2.15-2.95l-9.12-1.6l-4.34-8.18
		c-0.66-1.25-2.2-1.75-3.47-1.13L43.3,4.53l-8.32-4.07c-1.27-0.62-2.81-0.12-3.47,1.13l-4.34,8.18l-9.12,1.6
		c-1.39,0.24-2.34,1.55-2.15,2.95l1.3,9.17l-6.44,6.66c-0.98,1.02-0.98,2.63,0,3.65l6.44,6.66l-1.3,9.17
		c-0.2,1.4,0.75,2.71,2.15,2.95l7.3,1.28v28.39c0,0.91,0.47,1.75,1.24,2.23c0.42,0.26,0.9,0.39,1.38,0.39c0.4,0,0.8-0.09,1.17-0.28
		l14.15-7.07l14.15,7.07c0.81,0.41,1.78,0.36,2.55-0.12s1.24-1.32,1.24-2.23V53.86l7.3-1.28c1.39-0.24,2.34-1.55,2.15-2.95
		l-1.3-9.17l6.44-6.65C76.83,32.78,76.83,31.16,75.84,30.14z M44.7,74.64c-0.88-0.44-1.91-0.44-2.78,0l-13.67,6.84V56.9l2.93,5.55
		c0.79,1.48,2.42,1.68,3.92,0.94l8.22-3.96l8.27,3.96c0.44,0.22,2.72,0.68,3.82-0.99l2.98-5.49v24.57L44.7,74.64z M67.37,38.43
		c-0.63,0.65-0.93,1.56-0.8,2.46l1.26,8.9l-8.85,1.55c-0.9,0.16-1.67,0.72-2.1,1.52l-4.21,7.94l-8.07-3.95
		c-0.41-0.2-0.85-0.3-1.3-0.3s-0.89,0.1-1.3,0.3l-8.08,3.95l-4.21-7.94c-0.43-0.8-1.2-1.37-2.1-1.52l-8.85-1.55l1.26-8.9
		c0.13-0.9-0.17-1.81-0.8-2.46l-6.25-6.46l6.25-6.46c0.63-0.65,0.93-1.56,0.8-2.46l-1.26-8.9l8.85-1.55c0.9-0.16,1.67-0.72,2.1-1.52
		l4.21-7.94l8.08,3.95c0.82,0.4,1.77,0.4,2.59,0l8.07-3.95l4.21,7.94c0.43,0.8,1.2,1.36,2.1,1.52l8.85,1.55l-1.26,8.9
		c-0.13,0.9,0.17,1.81,0.8,2.46l6.25,6.46L67.37,38.43z"/>
	<path class="st0" d="M43.3,14.02c-9.9,0-17.95,8.05-17.95,17.95c0,9.9,8.05,17.95,17.95,17.95c9.9,0,17.95-8.05,17.95-17.95
		C61.25,22.07,53.2,14.02,43.3,14.02z M43.3,47.04c-8.31,0-15.07-6.76-15.07-15.07c0-8.31,6.76-15.06,15.07-15.06
		c8.31,0,15.07,6.76,15.07,15.06C58.37,40.28,51.61,47.04,43.3,47.04z"/>
	<path class="st0" d="M46.65,27.8l-4.86,4.85l-1.85-1.85c-0.64-0.64-1.68-0.64-2.32,0c-0.64,0.64-0.64,1.68,0,2.32l3.01,3.01
		c0.32,0.32,0.74,0.48,1.16,0.48c0.42,0,0.84-0.16,1.16-0.48l6.02-6.02c0.64-0.64,0.64-1.68,0-2.32
		C48.34,27.16,47.3,27.16,46.65,27.8z"/>
</g>
</svg>
