<?xml version="1.0" encoding="utf-8"?>
<!-- Generator: Adobe Illustrator 24.2.0, SVG Export Plug-In . SVG Version: 6.00 Build 0)  -->
<svg version="1.1" id="Vrstva_1" xmlns="http://www.w3.org/2000/svg" xmlns:xlink="http://www.w3.org/1999/xlink" x="0px" y="0px"
	 viewBox="0 0 85 85" style="enable-background:new 0 0 85 85;" xml:space="preserve">
<style type="text/css">
	.st0{fill:#020203;}
</style>
<g>
	<path d="M34.31,40.79c0.58,0,1.1-0.24,1.47-0.67c0.4-0.48,0.55-1.13,0.43-1.84l-1.01-5.92c-0.04-0.21,0.12-0.69,0.27-0.84l4.3-4.19
		c0.65-0.64,0.89-1.43,0.65-2.19s-0.9-1.26-1.81-1.39l-5.94-0.86c-0.21-0.03-0.62-0.33-0.72-0.52l-2.66-5.38
		c-0.4-0.82-1.09-1.29-1.88-1.29s-1.48,0.47-1.88,1.29l-2.66,5.38c-0.1,0.19-0.5,0.49-0.72,0.52l-5.94,0.86
		c-0.9,0.13-1.56,0.64-1.81,1.39s-0.01,1.55,0.65,2.19l4.3,4.19c0.15,0.15,0.31,0.63,0.27,0.84l-1.02,5.92
		c-0.12,0.71,0.03,1.36,0.43,1.84c0.61,0.72,1.65,0.87,2.61,0.37l5.31-2.79c0.04-0.02,0.2-0.08,0.44-0.08s0.4,0.05,0.44,0.08
		l5.31,2.79C33.54,40.69,33.93,40.79,34.31,40.79z M22.52,32.86c0.2-1.17-0.27-2.61-1.12-3.44l-3.08-3l4.25-0.62
		c1.17-0.17,2.4-1.06,2.93-2.13l1.9-3.85l1.9,3.85c0.52,1.06,1.75,1.96,2.93,2.13l4.25,0.62l-3.08,3c-0.85,0.83-1.32,2.27-1.12,3.44
		l0.73,4.24l-3.8-2c-0.51-0.27-1.15-0.41-1.81-0.41c-0.66,0-1.3,0.15-1.81,0.41l-3.8,2L22.52,32.86z"/>
	<path d="M63.81,40.79c0.58,0,1.1-0.24,1.47-0.67c0.4-0.47,0.55-1.13,0.43-1.84l-1.01-5.92c-0.04-0.21,0.12-0.69,0.27-0.84l4.3-4.19
		c0.65-0.64,0.89-1.43,0.65-2.19s-0.9-1.26-1.81-1.39l-5.94-0.86c-0.21-0.03-0.62-0.33-0.71-0.52l-2.66-5.38
		c-0.4-0.82-1.09-1.29-1.88-1.29s-1.48,0.47-1.88,1.29l-2.66,5.38c-0.09,0.19-0.5,0.49-0.71,0.52l-5.94,0.86
		c-0.9,0.13-1.56,0.64-1.81,1.39s-0.01,1.55,0.65,2.19l4.3,4.19c0.15,0.15,0.31,0.63,0.27,0.84l-1.01,5.92
		c-0.12,0.71,0.03,1.36,0.43,1.84c0.61,0.72,1.66,0.87,2.61,0.37l5.31-2.79c0.04-0.02,0.2-0.08,0.44-0.08
		c0.24,0,0.39,0.05,0.44,0.08l5.31,2.79C63.05,40.69,63.43,40.79,63.81,40.79z M52.03,32.86c0.2-1.17-0.27-2.61-1.12-3.44l-3.08-3
		l4.25-0.62c1.17-0.17,2.4-1.06,2.93-2.13l1.9-3.85l1.9,3.85c0.52,1.06,1.75,1.96,2.93,2.13L66,26.42l-3.08,3
		c-0.85,0.83-1.32,2.27-1.12,3.44l0.73,4.24l-3.81-2c-0.51-0.27-1.15-0.41-1.81-0.41c-0.66,0-1.3,0.15-1.81,0.41l-3.8,2L52.03,32.86
		z"/>
	<path d="M24.29,50.07l-5.94-0.86c-0.21-0.03-0.62-0.33-0.72-0.52l-2.66-5.38c-0.41-0.82-1.09-1.29-1.88-1.29
		c-0.79,0-1.48,0.47-1.88,1.29l-2.66,5.38c-0.1,0.19-0.5,0.49-0.72,0.52l-5.94,0.86C1,50.2,0.34,50.71,0.1,51.46
		c-0.24,0.75-0.01,1.55,0.65,2.19l4.3,4.19c0.15,0.15,0.31,0.63,0.27,0.84L4.3,64.59c-0.12,0.71,0.03,1.36,0.43,1.84
		c0.61,0.72,1.66,0.87,2.61,0.37L12.66,64c0.04-0.02,0.19-0.07,0.44-0.07s0.4,0.05,0.44,0.08l5.31,2.79c0.38,0.2,0.76,0.3,1.14,0.3
		c0.58,0,1.1-0.24,1.47-0.67c0.4-0.47,0.55-1.13,0.43-1.84l-1.01-5.91c-0.04-0.21,0.12-0.69,0.27-0.84l4.3-4.19
		c0.65-0.64,0.89-1.43,0.65-2.19C25.85,50.71,25.19,50.2,24.29,50.07z M17.98,59.17l0.73,4.24l-3.81-2
		c-0.51-0.27-1.15-0.41-1.81-0.41c-0.66,0-1.3,0.15-1.81,0.41l-3.8,2l0.73-4.24c0.2-1.17-0.27-2.61-1.12-3.44l-3.08-3l4.25-0.62
		c1.17-0.17,2.4-1.06,2.93-2.13l1.9-3.85l1.9,3.86c0.52,1.06,1.75,1.96,2.93,2.13l4.25,0.62l-3.08,3
		C18.25,56.56,17.78,58,17.98,59.17z"/>
	<path d="M53.7,50.07l-5.94-0.86c-0.21-0.03-0.62-0.33-0.72-0.52l-2.66-5.38c-0.4-0.82-1.09-1.29-1.88-1.29
		c-0.79,0-1.47,0.47-1.88,1.29l-2.66,5.38c-0.09,0.19-0.5,0.49-0.71,0.52l-5.94,0.86c-0.9,0.13-1.56,0.64-1.81,1.39
		c-0.24,0.75-0.01,1.55,0.65,2.19l4.3,4.19c0.15,0.15,0.31,0.63,0.27,0.84l-1.01,5.91c-0.12,0.71,0.03,1.36,0.43,1.84
		c0.61,0.72,1.66,0.87,2.61,0.37L42.07,64c0.04-0.02,0.19-0.07,0.44-0.07c0.25,0,0.4,0.05,0.44,0.08l5.31,2.79
		c0.38,0.2,0.76,0.3,1.14,0.3c0.58,0,1.11-0.24,1.47-0.67c0.4-0.47,0.55-1.13,0.43-1.84l-1.01-5.92c-0.04-0.21,0.12-0.69,0.27-0.84
		l4.3-4.19c0.65-0.64,0.89-1.43,0.64-2.19C55.26,50.71,54.6,50.2,53.7,50.07z M47.39,59.17l0.73,4.24l-3.8-2
		c-1.01-0.53-2.61-0.53-3.62,0l-3.8,2l0.73-4.24c0.2-1.17-0.27-2.61-1.12-3.44l-3.08-3l4.25-0.62c1.17-0.17,2.4-1.06,2.93-2.13
		l1.9-3.86l1.9,3.86c0.52,1.06,1.75,1.96,2.93,2.13l4.25,0.62l-3.08,3C47.66,56.56,47.19,58,47.39,59.17z"/>
	<path d="M84.27,53.64c0.65-0.64,0.89-1.43,0.65-2.18c-0.25-0.75-0.9-1.26-1.81-1.39l-5.94-0.86c-0.21-0.03-0.62-0.33-0.72-0.52
		l-2.66-5.38c-0.4-0.82-1.09-1.29-1.88-1.29s-1.47,0.47-1.88,1.29l-2.66,5.38c-0.1,0.19-0.5,0.49-0.72,0.52l-5.94,0.86
		c-0.9,0.13-1.56,0.64-1.81,1.39c-0.24,0.75-0.01,1.55,0.65,2.19l4.3,4.19c0.15,0.15,0.31,0.63,0.27,0.84l-1.01,5.92
		c-0.12,0.71,0.03,1.37,0.43,1.84c0.37,0.43,0.89,0.67,1.47,0.67c0.38,0,0.76-0.1,1.14-0.3l5.31-2.79c0.04-0.02,0.2-0.08,0.44-0.08
		s0.4,0.05,0.44,0.08l5.31,2.79c0.95,0.5,2,0.35,2.61-0.37c0.4-0.48,0.55-1.13,0.43-1.84l-1.01-5.91c-0.04-0.21,0.12-0.69,0.27-0.84
		L84.27,53.64z M67.03,59.17c0.2-1.17-0.27-2.61-1.12-3.44l-3.08-3l4.25-0.62c1.17-0.17,2.4-1.06,2.93-2.13l1.9-3.85l1.9,3.85
		c0.52,1.06,1.75,1.96,2.93,2.13L81,52.73l-3.08,3c-0.85,0.83-1.32,2.27-1.12,3.44l0.73,4.24l-3.81-2c-1.01-0.53-2.6-0.53-3.62,0
		l-3.8,2L67.03,59.17z"/>
</g>
</svg>
