<?xml version="1.0" encoding="UTF-8"?>
<!DOCTYPE svg PUBLIC "-//W3C//DTD SVG 1.1//EN" "http://www.w3.org/Graphics/SVG/1.1/DTD/svg11.dtd">
<!-- Creator: CorelDRAW X7 -->
<svg xmlns="http://www.w3.org/2000/svg" xml:space="preserve" width="230px" height="103px" version="1.1" style="shape-rendering:geometricPrecision; text-rendering:geometricPrecision; image-rendering:optimizeQuality; fill-rule:evenodd; clip-rule:evenodd"
viewBox="0 0 235 106"
 xmlns:xlink="http://www.w3.org/1999/xlink">
 <defs>
  <style type="text/css">
   <![CDATA[
    .str0 {stroke:#2B2A29;stroke-width:0.136812}
    .fil0 {fill:black}
    .fil1 {fill:#E31E24}
    .fil2 {fill:black;fill-rule:nonzero}
   ]]>
  </style>
 </defs>
 <g id="Vrstva_x0020_1">
  <metadata id="CorelCorpID_0Corel-Layer"/>
  <path class="fil0 str0" d="M13 40l114 0 6 11 5 11 15 -22 64 0c13,2 20,11 18,19 -2,8 -13,14 -22,14l-24 0c-11,0 -23,-11 -15,-26l-7 0 -20 26 -24 -1 -12 -25 -13 0 12 26 -20 0 -3 -8 -20 0 -5 8 -21 0 20 -26 -32 0c-3,0 -4,2 -2,4 2,2 8,3 12,6 12,10 -5,16 -14,16l-24 0 0 -10c5,1 10,2 16,2 3,0 3,-2 1,-3 -5,-3 -18,-8 -18,-14 0,-2 2,-4 5,-6 3,-1 6,-2 8,-2zm66 7l4 10 -10 0 6 -10zm118 1l11 -1c7,1 9,16 0,18l-11 0c-6,-1 -9,-15 0,-17z"/>
  <polygon class="fil1" points="235,29 118,0 0,29 0,36 118,8 235,36 "/>
  <rect class="fil1" y="80" width="234.918" height="25.2884"/>
  <path class="fil2" d="M8 99l0 -10 2 0 0 4 4 -4 3 0 -4 4 4 6 -2 0 -3 -5 -2 2 0 3 -2 0zm11 0l0 -10 2 0 0 8 5 0 0 2 -7 0zm9 0l0 -10 7 0 0 2 -5 0 0 2 4 0 0 1 -4 0 0 3 5 0 0 2 -7 0zm9 0l0 -10 3 0 2 7 2 -7 3 0 0 10 -2 0 0 -8 -2 8 -2 0 -2 -8 0 8 -2 0zm12 0l0 -10 3 0c1,0 2,0 3,0 0,0 1,1 1,1 0,1 1,1 1,2 0,1 -1,1 -1,1 0,1 0,1 -1,1 0,1 0,1 -1,1 0,0 -1,0 -2,0l-1 0 0 4 -2 0zm2 -8l0 2 1 0c1,0 1,0 2,0 0,0 0,0 0,0 0,-1 1,-1 1,-1 0,0 -1,-1 -1,-1 0,0 0,0 -1,0 0,0 0,0 -1,0l-1 0zm8 8l0 -10 2 0 0 10 -2 0zm-1 -11l1 -2 2 0 -1 2 -2 0zm5 11l0 -10 4 0c1,0 2,0 3,0 0,0 0,1 1,1 0,1 0,1 0,2 0,0 0,1 -1,1 0,1 -1,1 -1,1 0,1 0,1 1,1 0,0 0,1 1,2l1 2 -2 0 -2 -2c0,-1 -1,-2 -1,-2 0,0 0,0 -1,0 0,0 0,0 -1,0l0 0 0 4 -2 0zm2 -6l2 0c0,0 1,0 1,0 1,0 1,0 1,0 0,-1 0,-1 0,-1 0,-1 0,-1 0,-1 0,0 -1,0 -1,0 0,0 -1,0 -1,0l-2 0 0 2zm0 -7l1 0 1 1 0 -1 2 0 -1 2 -2 0 -1 -2zm8 10l2 -1c0,1 0,1 1,2 0,0 0,0 1,0 1,0 1,0 1,0 1,0 1,-1 1,-1 0,0 0,-1 0,-1 0,0 -1,0 -1,0 0,0 -1,0 -2,-1 -1,0 -1,0 -2,-1 0,0 -1,-1 -1,-2 0,0 0,0 1,-1 0,0 0,-1 1,-1 0,0 1,0 2,0 1,0 2,0 3,1 0,0 1,1 1,2l-2 0c0,-1 -1,-1 -1,-1 0,-1 -1,-1 -1,-1 -1,0 -1,0 -1,1 -1,0 -1,0 -1,0 0,1 0,1 1,1 0,0 0,0 1,1 1,0 2,0 2,0 1,1 1,1 1,1 1,1 1,1 1,2 0,0 0,1 -1,1 0,1 0,1 -1,1 0,1 -1,1 -2,1 -1,0 -2,0 -3,-1 -1,-1 -1,-1 -1,-2zm10 3l0 -10 2 0 0 4 4 -4 3 0 -4 4 4 6 -3 0 -2 -5 -2 2 0 3 -2 0zm11 0l0 -10 7 0 0 2 -6 0 0 2 5 0 0 1 -5 0 0 3 6 0 0 2 -7 0zm2 -11l1 -2 2 0 -2 2 -1 0zm14 11l0 -10 3 0c1,0 2,0 3,0 0,0 1,1 1,1 0,1 1,1 1,2 0,1 -1,1 -1,1 0,1 0,1 -1,1 0,1 0,1 -1,1 0,0 -1,0 -2,0l-1 0 0 4 -2 0zm2 -8l0 2 1 0c1,0 1,0 2,0 0,0 0,0 0,0 0,-1 1,-1 1,-1 0,0 -1,-1 -1,-1 0,0 0,0 -1,0 0,0 0,0 -1,0l-1 0zm7 3c0,-1 1,-2 1,-3 0,0 0,-1 1,-1 0,0 1,-1 1,-1 1,0 1,0 2,0 2,0 3,0 4,1 0,1 1,2 1,4 0,1 -1,3 -1,4 -1,0 -2,1 -4,1 -1,0 -2,-1 -3,-1 -1,-1 -2,-3 -2,-4zm2 0c0,1 1,2 1,2 1,1 1,1 2,1 1,0 2,0 2,-1 1,0 1,-1 1,-2 0,-1 0,-2 -1,-3 0,0 -1,-1 -2,-1 -1,0 -1,1 -2,1 0,1 -1,2 -1,3zm12 5l0 -8 -3 0 0 -2 8 0 0 2 -3 0 0 8 -2 0zm7 0l0 -10 4 0c1,0 2,0 2,0 1,0 1,1 1,1 1,1 1,1 1,2 0,0 0,1 -1,1 0,1 -1,1 -2,1 1,1 1,1 1,1 1,0 1,1 1,2l2 2 -3 0 -1 -2c-1,-1 -1,-2 -1,-2 0,0 -1,0 -1,0 0,0 0,0 -1,0l0 0 0 4 -2 0zm2 -6l1 0c1,0 2,0 2,0 0,0 0,0 1,0 0,-1 0,-1 0,-1 0,-1 0,-1 -1,-1 0,0 0,0 0,0 0,0 -1,0 -2,0l-1 0 0 2zm-1 -7l2 0 0 1 1 -1 2 0 -2 2 -1 0 -2 -2zm9 13l0 -10 7 0 0 2 -5 0 0 2 5 0 0 1 -5 0 0 3 6 0 0 2 -8 0zm10 -10l4 0c0,0 1,0 1,0 1,0 1,0 1,0 1,1 1,1 1,1 0,1 1,1 1,1 0,1 -1,1 -1,2 0,0 0,0 -1,0 1,1 1,1 2,1 0,1 0,1 0,2 0,0 0,1 0,1 -1,1 -1,1 -1,1 -1,0 -1,1 -1,1 -1,0 -2,0 -3,0l-3 0 0 -10zm2 2l0 2 1 0c1,0 1,0 2,0 0,0 0,0 0,-1 0,0 1,0 1,0 0,-1 0,-1 -1,-1 0,0 0,0 0,0 -1,0 -1,0 -2,0l-1 0zm0 3l0 3 2 0c0,0 1,0 1,0 0,0 0,0 1,0 0,-1 0,-1 0,-1 0,-1 0,-1 0,-1 0,0 -1,0 -1,0 0,-1 -1,-1 -2,-1l-1 0zm11 5l0 -4 -4 -6 3 0 2 4 2 -4 2 0 -3 6 0 4 -2 0zm13 -3l2 -1c0,1 0,1 1,2 0,0 1,0 1,0 1,0 1,0 2,0 0,0 0,-1 0,-1 0,0 0,-1 0,-1 0,0 -1,0 -1,0 0,0 -1,0 -1,-1 -2,0 -2,0 -3,-1 0,0 -1,-1 -1,-2 0,0 1,0 1,-1 0,0 1,-1 1,-1 1,0 1,0 2,0 1,0 2,0 3,1 0,0 1,1 1,2l-2 0c0,-1 -1,-1 -1,-1 0,-1 0,-1 -1,-1 -1,0 -1,0 -1,1 -1,0 -1,0 -1,0 0,1 0,1 1,1 0,0 0,0 1,1 1,0 2,0 3,0 0,1 0,1 1,1 0,1 0,1 0,2 0,0 0,1 0,1 -1,1 -1,1 -2,1 0,1 -1,1 -2,1 -1,0 -2,0 -3,-1 0,-1 -1,-1 -1,-2zm10 3l0 -2 2 0 0 2 -2 0zm5 0l0 -10 4 0c1,0 2,0 2,0 0,0 1,1 1,1 0,1 1,1 1,2 0,0 -1,1 -1,1 -1,1 -1,1 -2,1 0,1 1,1 1,1 0,0 1,1 1,2l1 2 -2 0 -1 -2c-1,-1 -1,-2 -1,-2 -1,0 -1,0 -1,0 0,0 -1,0 -1,0l0 0 0 4 -2 0zm2 -6l1 0c1,0 2,0 2,0 0,0 0,0 0,0 0,-1 1,-1 1,-1 0,-1 -1,-1 -1,-1 0,0 0,0 0,0 -1,0 -1,0 -2,0l-1 0 0 2zm8 6l0 -2 2 0 0 2 -2 0zm4 -5c0,-1 0,-2 0,-3 1,0 1,-1 1,-1 1,0 1,-1 2,-1 0,0 1,0 2,0 1,0 2,0 3,1 1,1 1,2 1,4 0,1 0,3 -1,4 -1,0 -2,1 -3,1 -2,0 -3,-1 -4,-1 -1,-1 -1,-3 -1,-4zm2 0c0,1 0,2 1,2 0,1 1,1 2,1 0,0 1,0 2,-1 0,0 0,-1 0,-2 0,-1 0,-2 0,-3 -1,0 -2,-1 -2,-1 -1,0 -2,1 -2,1 -1,1 -1,2 -1,3zm9 5l0 -2 2 0 0 2 -2 0z"/>
 </g>
</svg>
