<?xml version="1.0" encoding="utf-8"?>
<!-- Generator: Adobe Illustrator 24.2.0, SVG Export Plug-In . SVG Version: 6.00 Build 0)  -->
<svg version="1.1" id="Vrstva_1" xmlns="http://www.w3.org/2000/svg" xmlns:xlink="http://www.w3.org/1999/xlink" x="0px" y="0px"
	 viewBox="0 0 85 85" style="enable-background:new 0 0 85 85;" xml:space="preserve">
<style type="text/css">
	.st0{fill:#020203;}
</style>
<g>
	<path class="st0" d="M80.17,21.01H67.3c5.4-0.49,9.66-5.03,9.66-10.57c0-5.85-4.75-10.6-10.6-10.6s-10.6,4.75-10.6,10.6
		c0,5.54,4.25,10.08,9.66,10.57H40.78V6.7c0-3.37-2.74-6.11-6.11-6.11H6.36c-3.37,0-6.11,2.74-6.11,6.11v42.73
		c0,3.37,2.74,6.11,6.11,6.11h28.3c3.37,0,6.11-2.74,6.11-6.11V35.18c4.3,0.66,9.28,1.43,11.93,1.85v42.28
		c0,3.34,2.73,6.06,6.06,6.06h1.33c3.13,0,5.63-2.38,6.04-5.78c0.05-0.45,0.12-9.71,0.21-10.31c0.09,0.61,0.16,9.87,0.21,10.32
		c0.44,3.41,2.94,5.77,6.04,5.77h1.33c3.34,0,6.06-2.73,6.06-6.06V52.06h0.19c2.52,0,4.58-2.04,4.58-4.58V25.59
		C84.75,23.07,82.7,21.01,80.17,21.01z M58.63,10.44c0-4.25,3.46-7.7,7.7-7.7s7.7,3.46,7.7,7.7s-3.46,7.7-7.7,7.7
		C62.09,18.16,58.63,14.7,58.63,10.44z M6.59,3.31h27.8c2.1,0,3.81,1.69,3.81,3.81v7.91H2.8V7.12C2.8,5.03,4.49,3.31,6.59,3.31z
		 M38.1,49.47c0,0.94-1.15,3.46-3.51,3.46H6.39c-2.43,0-3.51-2.52-3.51-3.46V18.16H38.1v2.86h-1.52c-3.58,0-6.12,0.99-6.55,3.71
		l-6.9,0.02c-1.4,0-2.55,0.15-2.55,1.51c0,1.36,1.14,1.49,2.55,1.49l6.46-0.02c0,3.76,1.47,6.27,6.57,6.81
		c0.54,0.07,1.19,0.17,1.9,0.28l0.03,16.4V49.47z M81.52,48.07c0,0.02-0.02,0.03-0.03,0.03h-2.71c-1.38,0-1.97,1.1-1.97,2.46v30.19
		c0,0.91-0.75,1.64-1.68,1.64h-3.74c-1.14,0-1.61-1.24-1.69-1.96c-0.63-4.75-0.94-17.45-0.98-17.59c-0.17-1.21-4.61-1.22-4.79,0
		c-0.24,1.71-0.26,12.16-0.98,17.61c-0.09,0.73-0.38,1.96-1.52,1.96h-3.39c-0.93,0-1.68-0.73-1.68-1.64l-0.17-43.47
		c0-1.21-0.35-3.32-2.69-3.32c-0.09-0.02-9.77-0.66-15.3-1.55c-5.14-0.84-6.18-1.82-6.18-4.49c0-2.71,0.87-4.14,2.73-4.14
		l26.61,0.24l2.24,2.76l-2.46,14.36c-0.12,0.73,0.09,1.47,0.58,2.03l2.66,2.97c0.47,0.54,1.17,0.84,1.89,0.84
		c0.72,0,1.42-0.31,1.89-0.84l2.66-2.97c0.49-0.56,0.72-1.29,0.58-2.03l-2.46-14.36l1.96-2.41h9.56c0.61,0,1.12,0.51,1.12,1.12
		L81.52,48.07L81.52,48.07z"/>
	<path class="st0" d="M27.71,46.44c0.89,0,1.62-0.73,1.62-1.62v-2.2h2.21c0.89,0,1.62-0.73,1.62-1.62s-0.73-1.62-1.62-1.62h-2.21
		v-2.2c0-0.89-0.73-1.62-1.62-1.62c-0.89,0-1.62,0.73-1.62,1.62v2.2h-2.21c-0.89,0-1.62,0.73-1.62,1.62s0.73,1.62,1.62,1.62h2.21
		v2.2C26.09,45.72,26.81,46.44,27.71,46.44z"/>
	<path class="st0" d="M16.95,39.38H9.31c-0.89,0-1.62,0.73-1.62,1.62s0.73,1.62,1.62,1.62h7.65c0.89,0,1.62-0.73,1.62-1.62
		S17.85,39.38,16.95,39.38z"/>
	<path class="st0" d="M13.47,34.14h-0.66c-0.89,0-1.62,0.73-1.62,1.62s0.73,1.62,1.62,1.62h0.66c0.89,0,1.62-0.73,1.62-1.62
		S14.36,34.14,13.47,34.14z"/>
	<path class="st0" d="M13.45,44.53h-0.66c-0.89,0-1.62,0.73-1.62,1.62c0,0.89,0.73,1.62,1.62,1.62h0.66c0.89,0,1.62-0.73,1.62-1.62
		C15.07,45.26,14.35,44.53,13.45,44.53z"/>
	<path class="st0" d="M16.99,28.23l-1.56-1.56l1.56-1.56c0.63-0.63,0.63-1.66,0-2.3c-0.62-0.62-1.68-0.62-2.29,0l-1.56,1.56
		l-1.56-1.56c-0.62-0.62-1.68-0.62-2.29,0c-0.31,0.31-0.48,0.72-0.48,1.15s0.17,0.84,0.48,1.15l1.56,1.56l-1.56,1.56
		c-0.31,0.31-0.48,0.72-0.48,1.15c0,0.43,0.17,0.84,0.48,1.15v0c0.6,0.6,1.69,0.6,2.29,0l1.56-1.56l1.56,1.56
		c0.6,0.6,1.69,0.6,2.29,0C17.63,29.89,17.63,28.86,16.99,28.23z"/>
</g>
</svg>
